<svg xmlns="http://www.w3.org/2000/svg" xmlns:xlink="http://www.w3.org/1999/xlink" fill="none" version="1.1" width="32" height="32" viewBox="0 0 32 32"><defs><clipPath id="master_svg0_244_006224"><rect x="8.7998046875" y="8.79998779296875" width="14.399999618530273" height="14.399999618530273" rx="0"/></clipPath></defs><g><rect x="0" y="0" width="32" height="32" rx="16" fill="#FFFFFF" fill-opacity="1"/><rect x="0.4000000059604645" y="0.4000000059604645" width="31.19999998807907" height="31.19999998807907" rx="15.599999994039536" fill-opacity="0" stroke-opacity="1" stroke="#133CE8" fill="none" stroke-width="0.800000011920929"/><g><g clip-path="url(#master_svg0_244_006224)"><g><path d="M18.98134905960083,11.869510809669494C18.98134905960083,11.869510809669494,18.98134905960083,10.782478809669495,18.98134905960083,10.782478809669495C18.98134905960083,10.688259609669494,18.87306905960083,10.636228309669495,18.79993905960083,10.693884509669495C18.79993905960083,10.693884509669495,12.46056805960083,15.645290809669493,12.46056805960083,15.645290809669493C12.40670605960083,15.687180809669496,12.36312315960083,15.740810809669494,12.33314335960083,15.802110809669495C12.30316355960083,15.863400809669495,12.28757905960083,15.930730809669495,12.28757905960083,15.998960809669494C12.28757905960083,16.067190809669494,12.30316355960083,16.134530809669496,12.33314335960083,16.195820809669495C12.36312315960083,16.257110809669495,12.40670605960083,16.310750809669493,12.46056805960083,16.352630809669495C12.46056805960083,16.352630809669495,18.79993905960083,21.304050809669494,18.79993905960083,21.304050809669494C18.87446905960083,21.361650809669495,18.98134905960083,21.309650809669495,18.98134905960083,21.215450809669495C18.98134905960083,21.215450809669495,18.98134905960083,20.128410809669496,18.98134905960083,20.128410809669496C18.98134905960083,20.059510809669497,18.94900905960083,19.993410809669495,18.89556905960083,19.951230809669497C18.89556905960083,19.951230809669497,13.833069059600831,15.999670809669496,13.833069059600831,15.999670809669496C13.833069059600831,15.999670809669496,18.89556905960083,12.046700809669495,18.89556905960083,12.046700809669495C18.94900905960083,12.004510809669494,18.98134905960083,11.938410809669495,18.98134905960083,11.869510809669494C18.98134905960083,11.869510809669494,18.98134905960083,11.869510809669494,18.98134905960083,11.869510809669494Z" fill="#133CE8" fill-opacity="1"/></g></g></g></g></svg>