<svg xmlns="http://www.w3.org/2000/svg" xmlns:xlink="http://www.w3.org/1999/xlink" fill="none" version="1.1" width="16" height="16" viewBox="0 0 16 16"><defs><clipPath id="master_svg0_12_58678"><rect x="0" y="0" width="16" height="16" rx="0"/></clipPath></defs><g clip-path="url(#master_svg0_12_58678)"><g><path d="M0.8333740234375,3L0.8333740234375,13Q0.8333740234375,13.0492,0.8429810234374999,13.0975Q0.8525890234375,13.1458,0.8714340234375,13.1913Q0.8902800234375,13.2368,0.9176390234375,13.2778Q0.9449990234375,13.3187,0.9798210234375,13.3536Q1.0146430234375,13.3884,1.0555890234375,13.4157Q1.0965350234375,13.4431,1.1420320234374999,13.4619Q1.1875290234375,13.4808,1.2358289234375,13.4904Q1.2841283234375,13.5,1.3333740234375,13.5L14.6666740234375,13.5Q14.7159740234375,13.5,14.7642740234375,13.4904Q14.8125740234375,13.4808,14.8580740234375,13.4619Q14.9035740234375,13.4431,14.9444740234375,13.4157Q14.9854740234375,13.3884,15.0202740234375,13.3536Q15.0550740234375,13.3187,15.0824740234375,13.2778Q15.1097740234375,13.2368,15.1286740234375,13.1913Q15.1474740234375,13.1458,15.1570740234375,13.0975Q15.1666740234375,13.0492,15.1666740234375,13L15.1666740234375,3Q15.1666740234375,2.9507543,15.1570740234375,2.9024549Q15.1474740234375,2.854155,15.1286740234375,2.808658Q15.1097740234375,2.763161,15.0824740234375,2.722215Q15.0550740234375,2.681269,15.0202740234375,2.646447Q14.9854740234375,2.611625,14.9444740234375,2.584265Q14.9035740234375,2.556906,14.8580740234375,2.5380599999999998Q14.8125740234375,2.519215,14.7642740234375,2.509607Q14.7159740234375,2.5,14.6666740234375,2.5L1.3333740234375,2.5Q1.2841283234375,2.5,1.2358289234375,2.509607Q1.1875290234375,2.519215,1.1420320234374999,2.5380599999999998Q1.0965350234375,2.556906,1.0555890234375,2.584265Q1.0146430234375,2.611625,0.9798210234375,2.646447Q0.9449990234375,2.681269,0.9176390234375,2.722215Q0.8902800234375,2.763161,0.8714340234375,2.808658Q0.8525890234375,2.854155,0.8429810234374999,2.9024549Q0.8333740234375,2.9507543,0.8333740234375,3ZM1.8333740234375,12.5L1.8333740234375,3.5L14.1666740234375,3.5L14.1666740234375,12.5L1.8333740234375,12.5Z" fill-rule="evenodd" fill="#010207" fill-opacity="1"/></g><g><path d="M1.6333740234375,2.6L8.0000440234375,7.375L14.3666740234375,2.6Q14.5000740234375,2.5,14.6666740234375,2.5Q14.7159740234375,2.5,14.7642740234375,2.509607Q14.8125740234375,2.519215,14.8580740234375,2.5380599999999998Q14.9035740234375,2.556906,14.9444740234375,2.584265Q14.9854740234375,2.611625,15.0202740234375,2.646447Q15.0550740234375,2.681269,15.0824740234375,2.722215Q15.1097740234375,2.763161,15.1286740234375,2.808658Q15.1474740234375,2.854155,15.1570740234375,2.9024549Q15.1666740234375,2.9507543,15.1666740234375,3Q15.1666740234375,3.118034,15.1138740234375,3.223607Q15.0611740234375,3.32918,14.9666740234375,3.4L14.9661740234375,3.400392L8.3000440234375,8.4Q8.2351340234375,8.44868,8.1581540234375,8.47434Q8.081184023437501,8.5,8.0000440234375,8.5Q7.9189040234375,8.5,7.8419240234375,8.47434Q7.7649540234375,8.44868,7.7000440234375,8.4L1.0333740234375,3.4Q0.9389470234374999,3.32918,0.8861600234375,3.223607Q0.8333740234375,3.118034,0.8333740234375,3Q0.8333740234375,2.9507543,0.8429810234374999,2.9024549Q0.8525890234375,2.854155,0.8714340234375,2.808658Q0.8902800234375,2.763161,0.9176390234375,2.722215Q0.9449990234375,2.681269,0.9798210234375,2.646447Q1.0146430234375,2.611625,1.0555890234375,2.584265Q1.0965350234375,2.556906,1.1420320234374999,2.5380599999999998Q1.1875290234375,2.519215,1.2358289234375,2.509607Q1.2841283234375,2.5,1.3333740234375,2.5Q1.5000410234375,2.5,1.6333740234375,2.6Z" fill-rule="evenodd" fill="#010207" fill-opacity="1"/></g><g><path d="M0.8333740234375,3L0.8333740234375,8Q0.8333740234375,8.04925,0.8429810234374999,8.09755Q0.8525890234375,8.14584,0.8714340234375,8.19134Q0.8902800234375,8.23684,0.9176390234375,8.27778Q0.9449990234375,8.31873,0.9798210234375,8.35355Q1.0146430234375,8.38837,1.0555890234375,8.41573Q1.0965350234375,8.44309,1.1420320234374999,8.46194Q1.1875290234375,8.48078,1.2358289234375,8.49039Q1.2841283234375,8.5,1.3333740234375,8.5Q1.3826197234375,8.5,1.4309191234375,8.49039Q1.4792190234375,8.48078,1.5247160234375001,8.46194Q1.5702130234375,8.44309,1.6111590234375,8.41573Q1.6521050234375,8.38837,1.6869270234375,8.35355Q1.7217490234375,8.31873,1.7491090234375,8.27778Q1.7764680234374999,8.23684,1.7953140234375,8.19134Q1.8141590234375,8.14584,1.8237670234375,8.09755Q1.8333740234375,8.04925,1.8333740234375,8L1.8333740234375,3.5L8.0000440234375,3.5Q8.049284023437501,3.5,8.0975840234375,3.490393Q8.1458840234375,3.480785,8.1913840234375,3.4619400000000002Q8.236874023437501,3.443094,8.2778240234375,3.415735Q8.3187740234375,3.388375,8.3535940234375,3.353553Q8.3884140234375,3.318731,8.4157740234375,3.277785Q8.4431340234375,3.236839,8.4619840234375,3.191342Q8.4808240234375,3.145845,8.490434023437501,3.0975451Q8.5000440234375,3.0492457,8.5000440234375,3Q8.5000440234375,2.9507543,8.490434023437501,2.9024549Q8.4808240234375,2.854155,8.4619840234375,2.808658Q8.4431340234375,2.763161,8.4157740234375,2.722215Q8.3884140234375,2.681269,8.3535940234375,2.646447Q8.3187740234375,2.611625,8.2778240234375,2.584265Q8.2368840234375,2.556906,8.1913840234375,2.5380599999999998Q8.1458840234375,2.519215,8.0975840234375,2.509607Q8.049284023437501,2.5,8.0000440234375,2.5L1.3333740234375,2.5Q1.2841283234375,2.5,1.2358289234375,2.509607Q1.1875290234375,2.519215,1.1420320234374999,2.5380599999999998Q1.0965350234375,2.556906,1.0555890234375,2.584265Q1.0146430234375,2.611625,0.9798210234375,2.646447Q0.9449990234375,2.681269,0.9176390234375,2.722215Q0.8902800234375,2.763161,0.8714340234375,2.808658Q0.8525890234375,2.854155,0.8429810234374999,2.9024549Q0.8333740234375,2.9507543,0.8333740234375,3Z" fill-rule="evenodd" fill="#010207" fill-opacity="1"/></g><g><path d="M8,2.5L14.66667,2.5Q14.715910000000001,2.5,14.76421,2.509607Q14.81251,2.519215,14.85801,2.5380599999999998Q14.903500000000001,2.556906,14.94445,2.584265Q14.9854,2.611625,15.02022,2.646447Q15.05504,2.681269,15.0824,2.722215Q15.10976,2.763161,15.12861,2.808658Q15.14745,2.854155,15.157060000000001,2.9024549Q15.16667,2.9507543,15.16667,3L15.16667,8Q15.16667,8.04925,15.157060000000001,8.09755Q15.14745,8.14584,15.12861,8.19134Q15.10976,8.23684,15.0824,8.27778Q15.05504,8.31873,15.02022,8.35355Q14.9854,8.38837,14.94445,8.41573Q14.90351,8.44309,14.85801,8.46194Q14.81251,8.48078,14.76421,8.49039Q14.715910000000001,8.5,14.66667,8.5Q14.61742,8.5,14.56912,8.49039Q14.52082,8.48078,14.47532,8.46194Q14.429829999999999,8.44309,14.38888,8.41573Q14.347940000000001,8.38837,14.31311,8.35355Q14.27829,8.31873,14.25093,8.27778Q14.223569999999999,8.23684,14.20473,8.19134Q14.185880000000001,8.14584,14.176269999999999,8.09755Q14.16667,8.04925,14.16667,8L14.16667,3.5L8,3.5Q7.9507543,3.5,7.9024549,3.490393Q7.854155,3.480785,7.808658,3.4619400000000002Q7.763161,3.443094,7.722215,3.415735Q7.681269,3.388375,7.646447,3.353553Q7.611625,3.318731,7.584265,3.277785Q7.556906,3.236839,7.53806,3.191342Q7.519215,3.145845,7.509607,3.0975451Q7.5,3.0492457,7.5,3Q7.5,2.9507543,7.509607,2.9024549Q7.519215,2.854155,7.53806,2.808658Q7.556906,2.763161,7.584265,2.722215Q7.611625,2.681269,7.646447,2.646447Q7.681269,2.611625,7.722215,2.584265Q7.763161,2.556906,7.808658,2.5380599999999998Q7.854155,2.519215,7.9024549,2.509607Q7.9507543,2.5,8,2.5Z" fill-rule="evenodd" fill="#010207" fill-opacity="1"/></g></g></svg>