<svg xmlns="http://www.w3.org/2000/svg" xmlns:xlink="http://www.w3.org/1999/xlink" fill="none" version="1.1" width="16" height="16" viewBox="0 0 16 16"><defs><clipPath id="master_svg0_12_58594"><rect x="0" y="0" width="16" height="16" rx="0"/></clipPath></defs><g clip-path="url(#master_svg0_12_58594)"><g><path d="M2.5,14.667284375L2.5,3.333984375Q2.5,3.284738675,2.509607,3.236439275Q2.519215,3.188139375,2.5380599999999998,3.142642375Q2.556906,3.097145375,2.584265,3.056199375Q2.611625,3.015253375,2.646447,2.980431375Q2.681269,2.945609375,2.722215,2.918249375Q2.763161,2.890890375,2.808658,2.8720443749999998Q2.854155,2.853199375,2.9024549,2.843591375Q2.9507543,2.833984375,3,2.833984375L13,2.833984375Q13.0492,2.833984375,13.0975,2.843591375Q13.1458,2.853199375,13.1913,2.8720443749999998Q13.2368,2.890890375,13.2778,2.918249375Q13.3187,2.945609375,13.3536,2.980431375Q13.3884,3.015253375,13.4157,3.056199375Q13.4431,3.097145375,13.4619,3.142642375Q13.4808,3.188139375,13.4904,3.236439275Q13.5,3.284738675,13.5,3.333984375L13.5,14.667284375Q13.5,14.716584375,13.4904,14.764884375Q13.4808,14.813184375,13.4619,14.858684375Q13.4431,14.904184375,13.4157,14.945084375Q13.3884,14.986084375,13.3536,15.020884375Q13.3187,15.055684375,13.2778,15.083084375Q13.2368,15.110384375,13.1913,15.129284375Q13.1458,15.148084375,13.0975,15.157684375Q13.0492,15.167284375,13,15.167284375L3,15.167284375Q2.9507543,15.167284375,2.9024549,15.157684375Q2.854155,15.148084375,2.808658,15.129284375Q2.763161,15.110384375,2.722215,15.083084375Q2.681269,15.055684375,2.646447,15.020884375Q2.611625,14.986084375,2.584265,14.945084375Q2.556906,14.904184375,2.5380599999999998,14.858684375Q2.519215,14.813184375,2.509607,14.764884375Q2.5,14.716584375,2.5,14.667284375ZM12.5,3.833984375L3.5,3.833984375L3.5,14.167284375L12.5,14.167284375L12.5,3.833984375Z" fill-rule="evenodd" fill="#F44C43" fill-opacity="1"/></g><g><path d="M6.16650390625,6.666015625Q6.16650390625,6.616769925,6.17611090625,6.568470525Q6.18571890625,6.520170625,6.20456390625,6.474673625Q6.22340990625,6.429176625,6.25076890625,6.388230625Q6.27812890625,6.347284625,6.31295090625,6.312462625Q6.34777290625,6.277640625,6.38871890625,6.250280625Q6.42966490625,6.222921625,6.47516190625,6.204075625Q6.52065890625,6.185230625,6.56895880625,6.175622625Q6.61725820625,6.166015625,6.66650390625,6.166015625Q6.71574960625,6.166015625,6.76404900625,6.175622625Q6.81234890625,6.185230625,6.85784590625,6.204075625Q6.90334290625,6.222921625,6.94428890625,6.250280625Q6.98523490625,6.277640625,7.02005690625,6.312462625Q7.05487890625,6.347284625,7.08223890625,6.388230625Q7.10959790625,6.429176625,7.12844390625,6.474673625Q7.14728890625,6.520170625,7.15689690625,6.568470525Q7.16650390625,6.616769925,7.16650390625,6.666015625L7.16650390625,10.999345625Q7.16650390625,11.048595625,7.15689690625,11.096895625Q7.14728890625,11.145195625,7.12844390625,11.190685625Q7.10959790625,11.236185625000001,7.08223890625,11.277135625Q7.05487890625,11.318075624999999,7.02005690625,11.352905625Q6.98523490625,11.387725625,6.94428890625,11.415085625Q6.90334290625,11.442445625000001,6.85784590625,11.461285625Q6.81234890625,11.480135624999999,6.76404900625,11.489745625000001Q6.71574960625,11.499345625,6.66650390625,11.499345625Q6.61725820625,11.499345625,6.56895880625,11.489745625000001Q6.52065890625,11.480135624999999,6.47516190625,11.461285625Q6.42966490625,11.442445625000001,6.38871890625,11.415085625Q6.34777290625,11.387725625,6.31295090625,11.352905625Q6.27812890625,11.318075624999999,6.25076890625,11.277135625Q6.22340990625,11.236185625000001,6.20456390625,11.190685625Q6.18571890625,11.145195625,6.17611090625,11.096895625Q6.16650390625,11.048595625,6.16650390625,10.999345625L6.16650390625,6.666015625Z" fill-rule="evenodd" fill="#F44C43" fill-opacity="1"/></g><g><path d="M8.83349609375,6.666015625Q8.83349609375,6.616769925,8.84310309375,6.568470525Q8.852711093749999,6.520170625,8.87155609375,6.474673625Q8.89040209375,6.429176625,8.91776109375,6.388230625Q8.94512109375,6.347284625,8.97994309375,6.312462625Q9.01476509375,6.277640625,9.05571109375,6.250280625Q9.09665709375,6.222921625,9.14215409375,6.204075625Q9.18765109375,6.185230625,9.23595099375,6.175622625Q9.28425039375,6.166015625,9.33349609375,6.166015625Q9.38274179375,6.166015625,9.43104119375,6.175622625Q9.47934109375,6.185230625,9.52483809375,6.204075625Q9.57033509375,6.222921625,9.61128109375,6.250280625Q9.65222709375,6.277640625,9.68704909375,6.312462625Q9.72187109375,6.347284625,9.74923109375,6.388230625Q9.77659009375,6.429176625,9.79543609375,6.474673625Q9.814281093750001,6.520170625,9.82388909375,6.568470525Q9.83349609375,6.616769925,9.83349609375,6.666015625L9.83349609375,10.999345625Q9.83349609375,11.048595625,9.82388909375,11.096895625Q9.814281093750001,11.145195625,9.79543609375,11.190685625Q9.77659009375,11.236185625000001,9.74923109375,11.277135625Q9.72187109375,11.318075624999999,9.68704909375,11.352905625Q9.65222709375,11.387725625,9.61128109375,11.415085625Q9.57033509375,11.442445625000001,9.52483809375,11.461285625Q9.47934109375,11.480135624999999,9.43104119375,11.489745625000001Q9.38274179375,11.499345625,9.33349609375,11.499345625Q9.28425039375,11.499345625,9.23595099375,11.489745625000001Q9.18765109375,11.480135624999999,9.14215409375,11.461285625Q9.09665709375,11.442445625000001,9.05571109375,11.415085625Q9.01476509375,11.387725625,8.97994309375,11.352905625Q8.94512109375,11.318075624999999,8.91776109375,11.277135625Q8.89040209375,11.236185625000001,8.87155609375,11.190685625Q8.852711093749999,11.145195625,8.84310309375,11.096895625Q8.83349609375,11.048595625,8.83349609375,10.999345625L8.83349609375,6.666015625Z" fill-rule="evenodd" fill="#F44C43" fill-opacity="1"/></g><g><path d="M1.33349609375,2.833984375L14.66679609375,2.833984375Q14.71609609375,2.833984375,14.76439609375,2.843591375Q14.81269609375,2.853199375,14.85819609375,2.8720443749999998Q14.90369609375,2.890890375,14.94459609375,2.918249375Q14.98559609375,2.945609375,15.02039609375,2.980431375Q15.05519609375,3.015253375,15.08259609375,3.056199375Q15.10989609375,3.097145375,15.12879609375,3.142642375Q15.14759609375,3.188139375,15.15719609375,3.236439275Q15.16679609375,3.284738675,15.16679609375,3.333984375Q15.16679609375,3.383230075,15.15719609375,3.431529475Q15.14759609375,3.479829375,15.12879609375,3.525326375Q15.10989609375,3.570823375,15.08259609375,3.611769375Q15.05519609375,3.652715375,15.02039609375,3.687537375Q14.98559609375,3.722359375,14.94459609375,3.749719375Q14.90369609375,3.777078375,14.85819609375,3.7959243750000002Q14.81269609375,3.814769375,14.76439609375,3.824377375Q14.71609609375,3.833984375,14.66679609375,3.833984375L1.33349609375,3.833984375Q1.28425039375,3.833984375,1.23595099375,3.824377375Q1.18765109375,3.814769375,1.1421540937499999,3.7959243750000002Q1.09665709375,3.777078375,1.05571109375,3.749719375Q1.01476509375,3.722359375,0.97994309375,3.687537375Q0.94512109375,3.652715375,0.91776109375,3.611769375Q0.89040209375,3.570823375,0.87155609375,3.525326375Q0.85271109375,3.479829375,0.8431030937499999,3.431529475Q0.83349609375,3.383230075,0.83349609375,3.333984375Q0.83349609375,3.284738675,0.8431030937499999,3.236439275Q0.85271109375,3.188139375,0.87155609375,3.142642375Q0.89040209375,3.097145375,0.91776109375,3.056199375Q0.94512109375,3.015253375,0.97994309375,2.980431375Q1.01476509375,2.945609375,1.05571109375,2.918249375Q1.09665709375,2.890890375,1.1421540937499999,2.8720443749999998Q1.18765109375,2.853199375,1.23595099375,2.843591375Q1.28425039375,2.833984375,1.33349609375,2.833984375Z" fill-rule="evenodd" fill="#F44C43" fill-opacity="1"/></g><g><path d="M5.3333740234375,3.833984375L10.6667040234375,3.833984375Q10.7924940234375,3.833984375,10.903314023437499,3.774464375Q10.9466940234375,3.751154375,10.9846940234375,3.719834375Q11.0226940234375,3.688514375,11.0538640234375,3.650384375Q11.0850240234375,3.612254375,11.1081540234375,3.568774375Q11.1312740234375,3.525294375,11.145474023437501,3.478144375Q11.1596740234375,3.430994375,11.164394023437499,3.381974375Q11.1691240234375,3.332954375,11.1641940234375,3.283954375Q11.1592740234375,3.234954375,11.144874023437499,3.187864375Q11.1304840234375,3.140764375,11.107184023437501,3.097384375L10.0328840234375,1.097382375Q10.0008140234375,1.037673375,9.9540040234375,0.9886573750000001Q9.907194023437501,0.939641375,9.849014023437501,0.904856375Q9.7908440234375,0.870071375,9.725514023437501,0.852028375Q9.6601840234375,0.833984375,9.5924040234375,0.833984375L6.4297040234375,0.833984375Q6.3624740234375,0.833984375,6.2976230234375,0.8517463750000001Q6.2327760234375,0.869507375,6.1749240234375,0.9037683750000001Q6.1170720234375,0.9380303750000001,6.0703260234375005,0.986356375Q6.0235800234375,1.034683375,5.9912600234374995,1.093642375L4.8949270234375,3.0936443750000002Q4.8333740234375,3.205934375,4.8333740234375,3.333984375Q4.8333740234375,3.383234375,4.8429810234375,3.431524375Q4.8525890234375,3.479824375,4.8714340234375,3.525324375Q4.8902800234375,3.570824375,4.9176390234375,3.611764375Q4.9449990234375,3.652714375,4.9798210234375,3.687534375Q5.0146430234375,3.722364375,5.0555890234375,3.749714375Q5.0965350234375,3.777074375,5.1420320234375,3.795924375Q5.1875290234375,3.814764375,5.2358289234375,3.824374375Q5.2841283234375,3.833984375,5.3333740234375,3.833984375ZM9.8305640234375,2.833984375L6.1776520234375,2.833984375L6.7258140234375,1.833984375L9.2934140234375,1.833984375L9.8305640234375,2.833984375Z" fill-rule="evenodd" fill="#F44C43" fill-opacity="1"/></g></g></svg>
