<svg xmlns="http://www.w3.org/2000/svg" xmlns:xlink="http://www.w3.org/1999/xlink" fill="none" version="1.1" width="20" height="20" viewBox="0 0 20 20"><defs><clipPath id="master_svg0_3_01848"><rect x="0" y="0" width="20" height="20" rx="0"/></clipPath></defs><g clip-path="url(#master_svg0_3_01848)"><g><path d="M4,9.25L17.5,9.25Q17.573900000000002,9.25,17.6463,9.264410999999999Q17.7187,9.278822,17.787,9.30709Q17.8552,9.335359,17.9167,9.376398Q17.978099999999998,9.417437,18.0303,9.46967Q18.0825,9.521903,18.1236,9.583322Q18.1646,9.644742,18.1929,9.712987Q18.2212,9.781233,18.235599999999998,9.853682Q18.25,9.9261315,18.25,10Q18.25,10.0738685,18.235599999999998,10.146318Q18.2212,10.218767,18.1929,10.287013Q18.1646,10.355258,18.1236,10.416678Q18.0825,10.478097,18.0303,10.53033Q17.978099999999998,10.582563,17.9167,10.623602Q17.8552,10.664641,17.787,10.69291Q17.7187,10.721178,17.6463,10.735589000000001Q17.573900000000002,10.75,17.5,10.75L4,10.75Q3.9261315,10.75,3.853682,10.735589000000001Q3.781233,10.721178,3.712987,10.69291Q3.644742,10.664641,3.583322,10.623602Q3.521903,10.582563,3.46967,10.53033Q3.417437,10.478097,3.376398,10.416678Q3.335359,10.355258,3.30709,10.287013Q3.278822,10.218767,3.264411,10.146318Q3.25,10.0738685,3.25,10Q3.25,9.9261315,3.264411,9.853682Q3.278822,9.781233,3.30709,9.712987Q3.335359,9.644742,3.376398,9.583322Q3.417437,9.521903,3.46967,9.46967Q3.521903,9.417437,3.583322,9.376398Q3.644742,9.335359,3.712987,9.30709Q3.781233,9.278822,3.853682,9.264410999999999Q3.9261315,9.25,4,9.25Z" fill-rule="evenodd" fill="#5D5C98" fill-opacity="1"/></g><g><path d="M13.030484,4.469824L18.03033,9.46967Q18.13582,9.57516,18.19291,9.71299Q18.25,9.850819999999999,18.25,10Q18.25,10.149180000000001,18.19291,10.28701Q18.13582,10.42484,18.03033,10.53033L13.030792,15.5299L13.03033,15.5303Q12.924841,15.6358,12.787013,15.6929Q12.649184,15.75,12.5,15.75Q12.4261315,15.75,12.353682,15.7356Q12.281233,15.7212,12.212987,15.6929Q12.144742,15.6646,12.083322,15.6236Q12.021903,15.5826,11.96967,15.5303Q11.917437,15.4781,11.876398,15.4167Q11.835359,15.3553,11.80709,15.287Q11.778822,15.2188,11.764410999999999,15.1463Q11.75,15.0739,11.75,15Q11.75,14.85081,11.80709,14.71299Q11.864181,14.57516,11.96967,14.46967L11.970132,14.46921L16.43934,10L11.969824,5.5304839999999995L11.96967,5.53033Q11.864181,5.424841,11.80709,5.287013Q11.75,5.149184,11.75,5Q11.75,4.9261315,11.764410999999999,4.853682Q11.778822,4.781233,11.80709,4.712987Q11.835359,4.644742,11.876398,4.583322Q11.917437,4.521903,11.96967,4.46967Q12.021903,4.417437,12.083322,4.376398Q12.144742,4.335359,12.212987,4.30709Q12.281233,4.278822,12.353682,4.264411Q12.4261315,4.25,12.5,4.25Q12.649184,4.25,12.787013,4.30709Q12.924841,4.364181,13.03033,4.46967L13.030484,4.469824Z" fill-rule="evenodd" fill="#5D5C98" fill-opacity="1"/></g></g></svg>