<svg xmlns="http://www.w3.org/2000/svg" xmlns:xlink="http://www.w3.org/1999/xlink" fill="none" version="1.1" width="24" height="24" viewBox="0 0 24 24"><defs><clipPath id="master_svg0_3_01760"><rect x="0" y="0" width="24" height="24" rx="0"/></clipPath></defs><g clip-path="url(#master_svg0_3_01760)"><g><path d="M2.25,4L2.25,8C2.25,8.41421,2.585786,8.75,3,8.75C3.4142099999999997,8.75,3.75,8.41421,3.75,8L3.75,4Q3.75,3.8964499999999997,3.82322,3.82322Q3.8964499999999997,3.75,4,3.75L8,3.75C8.41421,3.75,8.75,3.4142099999999997,8.75,3C8.75,2.585786,8.41421,2.25,8,2.25L4,2.25Q3.27513,2.25,2.762563,2.762563Q2.25,3.27513,2.25,4ZM15.9999,2.25L19.9999,2.25Q20.7248,2.25,21.2374,2.762566Q21.7499,3.27513,21.7499,4L21.7499,8C21.7499,8.41421,21.4142,8.75,20.9999,8.75C20.5857,8.75,20.2499,8.41421,20.2499,8L20.2499,4Q20.2499,3.89644,20.1767,3.82322Q20.1035,3.75,19.9999,3.75L15.9999,3.75C15.5857,3.75,15.2499,3.4142099999999997,15.2499,3C15.2499,2.585786,15.5857,2.25,15.9999,2.25ZM11.25,6.50002C11.25,6.0858,11.58579,5.75002,12,5.75002C12.4142,5.75002,12.75,6.0858,12.75,6.50002L12.75,7.81031Q14.0344,8.024000000000001,15.0051,8.99478Q15.9759,9.96558,16.1896,11.25L17.5001,11.25C17.9143,11.25,18.2501,11.58579,18.2501,12C18.2501,12.4142,17.9143,12.75,17.5001,12.75L16.1896,12.75Q15.9759,14.0344,15.0051,15.0052Q14.0344,15.976,12.75,16.189700000000002L12.75,17.5C12.75,17.9142,12.4142,18.25,12,18.25C11.58579,18.25,11.25,17.9142,11.25,17.5L11.25,16.189700000000002Q9.96556,15.976,8.99473,15.0052Q8.02394,14.0344,7.81025,12.75L6.50006,12.75C6.085850000000001,12.75,5.7500599999999995,12.4142,5.7500599999999995,12C5.7500599999999995,11.58579,6.085850000000001,11.25,6.50006,11.25L7.81025,11.25Q8.02393,9.96558,8.99473,8.99478Q9.96556,8.023959999999999,11.25,7.81029L11.25,6.50002ZM12,9.25001L11.99389,9.24999Q10.85871,9.25212,10.05539,10.05544Q9.2543,10.85653,9.24996,11.98766L9.250060000000001,12L9.24996,12.01233Q9.25431,13.1434,10.05539,13.9445Q10.86085,14.75,11.99994,14.75Q13.139,14.75,13.9445,13.9445Q14.7499,13.1391,14.7499,11.99998Q14.7499,10.8609,13.9445,10.05544Q13.1412,9.25216,12.00609,9.24999L12,9.25001ZM12.00006,13C12.5523,13,13.0001,12.5523,13.0001,12.00002C13.0001,11.44773,12.5523,11.00002,12.00006,11.00002C11.44778,11.00002,11.00006,11.44773,11.00006,12.00002C11.00006,12.5523,11.44778,13,12.00006,13ZM2.25,16C2.25,15.5858,2.585786,15.25,3,15.25C3.4142099999999997,15.25,3.75,15.5858,3.75,16L3.75,20Q3.75,20.25,4,20.25L8,20.25C8.41421,20.25,8.75,20.5858,8.75,21C8.75,21.4142,8.41421,21.75,8,21.75L7.99896,21.75L4,21.75Q3.27513,21.75,2.762566,21.2374Q2.25,20.7249,2.25,20L2.25,16ZM21.7499,16.000999999999998L21.7499,20Q21.7499,20.7249,21.2374,21.2374Q20.7248,21.75,19.9999,21.75L15.9999,21.75C15.801,21.75,15.6103,21.671,15.4696,21.5303C15.329,21.3897,15.2499,21.1989,15.2499,21C15.2499,20.5858,15.5857,20.25,15.9999,20.25L19.9999,20.25Q20.2499,20.25,20.2499,20L20.2499,16C20.2499,15.5858,20.5857,15.25,20.9999,15.25C21.4142,15.25,21.7499,15.5858,21.7499,16L21.7499,16.000999999999998Z" fill-rule="evenodd" fill="#010207" fill-opacity="1"/></g></g></svg>