<svg xmlns="http://www.w3.org/2000/svg" xmlns:xlink="http://www.w3.org/1999/xlink" fill="none" version="1.1" width="24" height="24" viewBox="0 0 24 24"><defs><clipPath id="master_svg0_3478_11221"><rect x="0" y="0" width="24" height="24" rx="0"/></clipPath></defs><g clip-path="url(#master_svg0_3478_11221)"><g><path d="M4.60566,19.8476L5.5357400000000005,18.2621C3.9093869999999997,16.583199999999998,3,14.3374,3,12C3,7.02944,7.02944,3,12,3C16.970599999999997,3,21,7.02944,21,12C21,16.3127,17.9601,19.9396,13.8722,20.8044C13.3868,20.9071,12.88657,20.9709,12.37491,20.9922L12.37298,20.9923L12.37491,21L5.2817,21C4.68077,21,4.3052,20.3598,4.60566,19.8476ZM12.31081,19.4936L12.15552,19.5L6.548579999999999,19.5L7.40655,18.037399999999998L6.61312,17.218400000000003Q4.5,15.037,4.5,12Q4.5,8.8934,6.6967,6.6967Q8.8934,4.5,12,4.5Q15.1066,4.5,17.3033,6.6967Q19.5,8.8934,19.5,12Q19.5,15.0159,17.412100000000002,17.1923Q15.3242,19.3686,12.31081,19.4936Z" fill-rule="evenodd" fill="#133CE8" fill-opacity="1"/></g><g><rect x="10" y="10" width="2" height="4" rx="1" fill="#133CE8" fill-opacity="1"/></g><g><rect x="14" y="10" width="2" height="4" rx="1" fill="#133CE8" fill-opacity="1"/></g></g></svg>
