<svg xmlns="http://www.w3.org/2000/svg" xmlns:xlink="http://www.w3.org/1999/xlink" fill="none" version="1.1" width="16" height="32" viewBox="0 0 16 32"><g><g><path d="M11.856950000000001,6.742781Q12,6.385165,12,6Q12,5.9017463,11.99037,5.803966Q11.98074,5.706185,11.96157,5.609819Q11.9424,5.513454,11.913879999999999,5.419431Q11.88536,5.325408,11.847760000000001,5.234633Q11.81016,5.143859,11.76384,5.057207Q11.71753,4.97055,11.662939999999999,4.88886Q11.60835,4.80716,11.54602,4.73121Q11.48369,4.65526,11.41421,4.58579Q11.34474,4.51631,11.26879,4.45398Q11.19283,4.39165,11.111139999999999,4.33706Q11.02945,4.28247,10.942789999999999,4.23616Q10.85614,4.18984,10.76537,4.15224Q10.67459,4.11464,10.58057,4.08612Q10.486550000000001,4.0576,10.39018,4.03843Q10.29382,4.01926,10.19603,4.00963Q10.09825,4,10,4Q9.85094,4,9.703520000000001,4.0221Q9.55611,4.04419,9.4136,4.0879Q9.271090000000001,4.1316,9.13663,4.19595Q9.00217,4.2603,8.87874,4.34387Q8.75531,4.42743,8.64563,4.52838Q8.53595,4.62932,8.44244,4.7454Q8.348939999999999,4.86149,8.27367,4.99015Q8.198409999999999,5.118819,8.14305,5.257219L4.4401600000000006,14.51444Q3.84593,16,4.4401600000000006,17.485599999999998L8.14305,26.7428Q8.198409999999999,26.8812,8.27367,27.0098Q8.348939999999999,27.1385,8.44244,27.2546Q8.53595,27.3707,8.64563,27.4716Q8.75531,27.5726,8.87874,27.6561Q9.00218,27.7397,9.13663,27.8041Q9.271090000000001,27.8684,9.4136,27.9121Q9.55611,27.9558,9.703520000000001,27.9779Q9.85094,28,10,28Q10.09825,28,10.19603,27.9904Q10.29382,27.9807,10.39018,27.9616Q10.486550000000001,27.9424,10.58057,27.9139Q10.67459,27.8854,10.76537,27.8478Q10.85614,27.8102,10.942789999999999,27.7638Q11.02945,27.7175,11.111139999999999,27.6629Q11.19283,27.6084,11.26879,27.546Q11.34474,27.4837,11.41421,27.4142Q11.48369,27.3447,11.54602,27.2688Q11.60835,27.1928,11.662939999999999,27.1111Q11.71753,27.0294,11.76384,26.9428Q11.81016,26.8561,11.847760000000001,26.7654Q11.88536,26.6746,11.913879999999999,26.5806Q11.9424,26.4865,11.96157,26.3902Q11.98074,26.2938,11.99037,26.196Q12,26.0983,12,26Q12,25.6148,11.856950000000001,25.2572L11.85684,25.2569L8.15407,16L11.856950000000001,6.742781L11.856950000000001,6.742781Z" fill-rule="evenodd" fill="#727378" fill-opacity="1"/></g></g></svg>