<svg xmlns="http://www.w3.org/2000/svg" xmlns:xlink="http://www.w3.org/1999/xlink" fill="none" version="1.1" width="16" height="32" viewBox="0 0 16 32"><g><g transform="matrix(-1,0,0,1,20,0)"><path d="M15.856950000000001,6.742781Q16,6.385165,16,6Q16,5.9017463,15.99037,5.803966Q15.98074,5.706185,15.96157,5.609819Q15.9424,5.513454,15.913879999999999,5.419431Q15.88536,5.325408,15.847760000000001,5.234633Q15.81016,5.143859,15.76384,5.057207Q15.71753,4.97055,15.662939999999999,4.88886Q15.60835,4.80716,15.54602,4.73121Q15.48369,4.65526,15.41421,4.58579Q15.34474,4.51631,15.26879,4.45398Q15.19283,4.39165,15.111139999999999,4.33706Q15.02945,4.28247,14.942789999999999,4.23616Q14.85614,4.18984,14.76537,4.15224Q14.67459,4.11464,14.58057,4.08612Q14.486550000000001,4.0576,14.39018,4.03843Q14.29382,4.01926,14.19603,4.00963Q14.09825,4,14,4Q13.85094,4,13.703520000000001,4.0221Q13.55611,4.04419,13.4136,4.0879Q13.271090000000001,4.1316,13.13663,4.19595Q13.00217,4.2603,12.87874,4.34387Q12.75531,4.42743,12.64563,4.52838Q12.53595,4.62932,12.44244,4.7454Q12.348939999999999,4.86149,12.27367,4.99015Q12.198409999999999,5.118819,12.14305,5.257219L8.44016,14.51444Q7.84593,16,8.44016,17.485599999999998L12.14305,26.7428Q12.198409999999999,26.8812,12.27367,27.0098Q12.348939999999999,27.1385,12.44244,27.2546Q12.53595,27.3707,12.64563,27.4716Q12.75531,27.5726,12.87874,27.6561Q13.00218,27.7397,13.13663,27.8041Q13.271090000000001,27.8684,13.4136,27.9121Q13.55611,27.9558,13.703520000000001,27.9779Q13.85094,28,14,28Q14.09825,28,14.19603,27.9904Q14.29382,27.9807,14.39018,27.9616Q14.486550000000001,27.9424,14.58057,27.9139Q14.67459,27.8854,14.76537,27.8478Q14.85614,27.8102,14.942789999999999,27.7638Q15.02945,27.7175,15.111139999999999,27.6629Q15.19283,27.6084,15.26879,27.546Q15.34474,27.4837,15.41421,27.4142Q15.48369,27.3447,15.54602,27.2688Q15.60835,27.1928,15.662939999999999,27.1111Q15.71753,27.0294,15.76384,26.9428Q15.81016,26.8561,15.847760000000001,26.7654Q15.88536,26.6746,15.913879999999999,26.5806Q15.9424,26.4865,15.96157,26.3902Q15.98074,26.2938,15.99037,26.196Q16,26.0983,16,26Q16,25.6148,15.856950000000001,25.2572L15.85684,25.2569L12.15407,16L15.856950000000001,6.742781L15.856950000000001,6.742781Z" fill-rule="evenodd" fill="#727378" fill-opacity="1"/></g></g></svg>