<svg xmlns="http://www.w3.org/2000/svg" xmlns:xlink="http://www.w3.org/1999/xlink" fill="none" version="1.1" width="16" height="16" viewBox="0 0 16 16"><g><g><ellipse cx="8" cy="8" rx="7" ry="7" fill="#133CE8" fill-opacity="1"/></g><g><path d="M5,7.5L11,7.5Q11.04925,7.5,11.09755,7.509607Q11.14584,7.519215,11.19134,7.53806Q11.23684,7.556906,11.27778,7.584265Q11.31873,7.611625,11.35355,7.646447Q11.38837,7.681269,11.41573,7.722215Q11.44309,7.763161,11.46194,7.808658Q11.48078,7.854155,11.49039,7.9024549Q11.5,7.9507543,11.5,8Q11.5,8.0492457,11.49039,8.0975451Q11.48078,8.145845,11.46194,8.191342Q11.44309,8.236839,11.41573,8.277785Q11.38837,8.318731,11.35355,8.353553Q11.31873,8.388375,11.27778,8.415735Q11.23684,8.443094,11.19134,8.46194Q11.14584,8.480785000000001,11.09755,8.490393Q11.04925,8.5,11,8.5L5,8.5Q4.9507543,8.5,4.9024549,8.490393Q4.854155,8.480785000000001,4.808658,8.46194Q4.763161,8.443094,4.722215,8.415735Q4.681269,8.388375,4.646447,8.353553Q4.611625,8.318731,4.584265,8.277785Q4.556906,8.236839,4.53806,8.191342Q4.519215,8.145845,4.509607,8.0975451Q4.5,8.0492457,4.5,8Q4.5,7.9507543,4.509607,7.9024549Q4.519215,7.854155,4.53806,7.808658Q4.556906,7.763161,4.584265,7.722215Q4.611625,7.681269,4.646447,7.646447Q4.681269,7.611625,4.722215,7.584265Q4.763161,7.556906,4.808658,7.53806Q4.854155,7.519215,4.9024549,7.509607Q4.9507543,7.5,5,7.5Z" fill-rule="evenodd" fill="#FFFFFF" fill-opacity="1"/></g><g><path d="M7.5,5Q7.5,4.9507543,7.509607,4.9024549Q7.519215,4.854155,7.53806,4.808658Q7.556906,4.763161,7.584265,4.722215Q7.611625,4.681269,7.646447,4.646447Q7.681269,4.611625,7.722215,4.584265Q7.763161,4.556906,7.808658,4.53806Q7.854155,4.519215,7.9024549,4.509607Q7.9507543,4.5,8,4.5Q8.0492457,4.5,8.0975451,4.509607Q8.145845,4.519215,8.191342,4.53806Q8.236839,4.556906,8.277785,4.584265Q8.318731,4.611625,8.353553,4.646447Q8.388375,4.681269,8.415735,4.722215Q8.443094,4.763161,8.46194,4.808658Q8.480785000000001,4.854155,8.490393,4.9024549Q8.5,4.9507543,8.5,5L8.5,11Q8.5,11.04925,8.490393,11.09755Q8.480785000000001,11.14584,8.46194,11.19134Q8.443094,11.23684,8.415735,11.27778Q8.388375,11.31873,8.353553,11.35355Q8.318731,11.38837,8.277785,11.41573Q8.236839,11.44309,8.191342,11.46194Q8.145845,11.48078,8.0975451,11.49039Q8.0492457,11.5,8,11.5Q7.9507543,11.5,7.9024549,11.49039Q7.854155,11.48078,7.808658,11.46194Q7.763161,11.44309,7.722215,11.41573Q7.681269,11.38837,7.646447,11.35355Q7.611625,11.31873,7.584265,11.27778Q7.556906,11.23684,7.53806,11.19134Q7.519215,11.14584,7.509607,11.09755Q7.5,11.04925,7.5,11L7.5,5Z" fill-rule="evenodd" fill="#FFFFFF" fill-opacity="1"/></g></g></svg>